<?xml version="1.0" encoding="UTF-8" standalone="no"?>
<svg
   xmlns:dc="http://purl.org/dc/elements/1.1/"
   xmlns:cc="http://creativecommons.org/ns#"
   xmlns:rdf="http://www.w3.org/1999/02/22-rdf-syntax-ns#"
   xmlns:svg="http://www.w3.org/2000/svg"
   xmlns="http://www.w3.org/2000/svg"
   xmlns:sodipodi="http://sodipodi.sourceforge.net/DTD/sodipodi-0.dtd"
   xmlns:inkscape="http://www.inkscape.org/namespaces/inkscape"
   viewBox="470 301 953.42999 152"
   id="svg6319"
   version="1.1"
   inkscape:version="0.91 r13725"
   sodipodi:docname="app-title.svg"
   width="953.42999"
   height="152"
   style="fill:#455a64">
  <metadata
     id="metadata6327">
    <rdf:RDF>
      <cc:Work
         rdf:about="">
        <dc:format>image/svg+xml</dc:format>
        <dc:type
           rdf:resource="http://purl.org/dc/dcmitype/StillImage" />
        <dc:title />
      </cc:Work>
    </rdf:RDF>
  </metadata>
  <defs
     id="defs6325" />
  <sodipodi:namedview
     pagecolor="#ffffff"
     bordercolor="#666666"
     borderopacity="1"
     objecttolerance="10"
     gridtolerance="10"
     guidetolerance="10"
     inkscape:pageopacity="0"
     inkscape:pageshadow="2"
     inkscape:window-width="1920"
     inkscape:window-height="1017"
     id="namedview6323"
     showgrid="false"
     inkscape:zoom="0.73846154"
     inkscape:cx="-31.938633"
     inkscape:cy="-90.5"
     inkscape:window-x="-8"
     inkscape:window-y="-8"
     inkscape:window-maximized="1"
     inkscape:current-layer="text3338" />
  <g
     style="font-style:normal;font-variant:normal;font-weight:normal;font-stretch:normal;font-size:82.22678375px;line-height:125%;font-family:Lato;-inkscape-font-specification:Lato;letter-spacing:0px;word-spacing:0px;fill:#24626a;fill-opacity:1;stroke:none;stroke-width:1px;stroke-linecap:butt;stroke-linejoin:miter;stroke-opacity:1"
     id="text3338">
    <path
       d="m 470.20006,415.95904 16.31229,0 0,-94.77645 -16.31229,0 0,-12.1826 48.93686,0 0,12.1826 -16.00256,0 0,94.77645 42.32936,0 0,-34.58618 14.97013,0 0,46.66553 -90.23379,0 0,-12.07935 z"
       style="font-style:normal;font-variant:normal;font-weight:normal;font-stretch:normal;font-size:211.4402771px;font-family:Rokkitt;-inkscape-font-specification:Rokkitt;fill:#24626a;fill-opacity:1"
       id="path7632" />
    <path
       d="m 576.22993,354.94283 q 5.57508,-5.57509 13.83447,-8.56912 8.25939,-2.99402 18.89334,-2.99402 9.70478,0 16.20905,2.37457 6.50427,2.27133 10.32423,6.0913 3.81997,3.81996 5.3686,8.77559 1.65188,4.95564 1.65188,10.22099 l 0,46.14932 14.86689,0 0,11.04693 -28.59812,0 -0.20648,-8.56911 q -4.1297,2.99403 -7.74318,5.05887 -3.61348,1.96161 -7.12372,3.20051 -3.407,1.13567 -6.91723,1.65188 -3.51024,0.51621 -7.33021,0.51621 -6.50427,0 -11.76962,-1.9616 -5.16212,-2.06485 -8.87884,-5.3686 -3.61349,-3.30376 -5.57509,-7.63993 -1.85836,-4.43942 -1.85836,-9.18857 0,-7.74317 2.78754,-12.80205 2.89079,-5.05887 7.74318,-8.0529 4.85238,-2.99403 11.35665,-4.12969 6.60751,-1.23891 13.93771,-1.23891 4.95564,0 9.80803,0.51621 4.85238,0.51621 10.11774,1.54864 l 0,-10.01451 q 0,-4.33618 -1.54863,-7.3302 -1.44539,-3.09727 -4.12969,-4.95564 -2.58106,-1.85836 -6.0913,-2.6843 -3.51024,-0.92918 -7.43345,-0.92918 -7.12372,0 -12.90529,2.37458 -5.67833,2.27133 -9.29181,7.02047 l -9.49829,-10.11774 z m 50.89846,36.75426 q -3.30375,-0.10324 -8.36262,-0.82594 -4.95564,-0.82593 -10.53072,-0.82593 -4.02645,0 -8.0529,0.61945 -4.02645,0.51621 -7.22697,2.16809 -3.09727,1.65188 -5.05887,4.74915 -1.9616,3.09727 -1.9616,8.15614 0,2.6843 1.03242,5.16212 1.03242,2.37457 2.99403,4.12969 2.06484,1.75512 4.95563,2.78754 2.89078,1.03242 6.71075,1.03242 3.407,0 6.91724,-0.61945 3.51023,-0.61945 6.81399,-1.75512 3.407,-1.23891 6.40102,-2.89078 2.99403,-1.75512 5.3686,-3.92321 l 0,-17.96417 z"
       style="font-style:normal;font-variant:normal;font-weight:normal;font-stretch:normal;font-size:211.4402771px;font-family:Rokkitt;-inkscape-font-specification:Rokkitt;fill:#24626a;fill-opacity:1"
       id="path7634" />
    <path
       d="m 668.83829,356.38822 -11.25342,0 0,-11.4599 36.54778,0 0,11.4599 -11.97611,0 8.98209,29.11433 8.87884,26.3268 9.29181,-26.43004 8.98208,-29.01109 -9.80802,0 0,-11.4599 41.09044,0 0,11.4599 -9.80802,0 18.68686,56.57679 17.75768,-56.57679 -12.59556,0 0,-11.4599 38.50938,0 0,11.4599 -12.59556,0 -24.1587,71.65017 -14.66041,0 -21.16468,-62.56485 -21.88737,62.56485 -14.76365,0 -24.05546,-71.65017 z"
       style="font-style:normal;font-variant:normal;font-weight:normal;font-stretch:normal;font-size:211.4402771px;font-family:Rokkitt;-inkscape-font-specification:Rokkitt;fill:#24626a;fill-opacity:1"
       id="path7636" />
    <path
       d="m 808.83489,416.99146 14.76366,0 0,-60.60324 -15.38311,0 0,-11.4599 30.55973,0 0.41297,10.7372 q 7.94966,-6.19454 14.76365,-9.18856 6.81399,-3.09727 14.45392,-3.09727 5.67833,0 10.11775,1.85836 4.54266,1.85836 7.63993,5.3686 3.20052,3.51024 4.85239,8.46587 1.65188,4.85239 1.65188,10.94369 l -0.10324,46.97525 14.97013,0 0,11.04693 -41.50341,0 0,-11.04693 11.35666,0 0,-41.29693 q 0,-9.08532 -2.78755,-14.14419 -2.78754,-5.16212 -10.11774,-5.16212 -7.12372,0 -13.42151,3.71672 -6.29778,3.71673 -11.87286,9.08533 l 0,47.80119 14.97013,0 0,11.04693 -45.32338,0 0,-11.04693 z"
       style="font-style:normal;font-variant:normal;font-weight:normal;font-stretch:normal;font-size:211.4402771px;font-family:Rokkitt;-inkscape-font-specification:Rokkitt;fill:#24626a;fill-opacity:1"
       id="path7638" />
    <path
       d="m 980.52688,415.95904 18.0674,0 0,-94.77645 -27.35921,0 0,23.74573 -13.31826,0 0,-35.92833 97.77049,0 0,35.92833 -13.5248,0 0,-23.74573 -26.7397,0 0,94.77645 17.9641,0 0,12.07935 -52.86002,0 0,-12.07935 z"
       style="font-style:normal;font-variant:normal;font-weight:normal;font-stretch:normal;font-size:211.4402771px;font-family:Rokkitt;-inkscape-font-specification:Rokkitt;fill:#24626a;fill-opacity:1"
       id="path7640" />
    <path
       d="m 1067.0439,416.99146 16.622,0 0,-60.60324 -17.2414,0 0,-11.4599 29.837,0 0.1032,18.06741 q 2.7876,-5.67833 5.9881,-9.39505 3.2005,-3.81997 6.9172,-6.0913 3.7167,-2.27133 8.0529,-3.20051 4.3362,-0.92918 9.2918,-0.92918 4.4395,0 9.6016,0.61945 l -0.5162,14.35068 q -0.1033,-0.10324 -1.6519,-0.10324 -1.4454,-0.10324 -3.2005,-0.10324 -1.7552,-0.10324 -3.407,-0.10324 -1.5487,0 -1.8584,0 -7.6399,0 -12.6988,2.16809 -5.0589,2.16808 -8.1561,6.19453 -2.9941,4.02645 -4.3362,9.70478 -1.2389,5.67833 -1.2389,12.69881 l 0,28.18515 18.1706,0 0,11.04693 -50.279,0 0,-11.04693 z"
       style="font-style:normal;font-variant:normal;font-weight:normal;font-stretch:normal;font-size:211.4402771px;font-family:Rokkitt;-inkscape-font-specification:Rokkitt;fill:#24626a;fill-opacity:1"
       id="path7642" />
    <path
       d="m 1149.4313,354.94283 q 5.5751,-5.57509 13.8345,-8.56912 8.2593,-2.99402 18.8933,-2.99402 9.7048,0 16.2091,2.37457 6.5042,2.27133 10.3242,6.0913 3.8199,3.81996 5.3686,8.77559 1.6519,4.95564 1.6519,10.22099 l 0,46.14932 14.8669,0 0,11.04693 -28.5982,0 -0.2065,-8.56911 q -4.1296,2.99403 -7.7431,5.05887 -3.6135,1.96161 -7.1237,3.20051 -3.407,1.13567 -6.9173,1.65188 -3.5102,0.51621 -7.3302,0.51621 -6.5043,0 -11.7696,-1.9616 -5.1621,-2.06485 -8.8789,-5.3686 -3.6134,-3.30376 -5.575,-7.63993 -1.8584,-4.43942 -1.8584,-9.18857 0,-7.74317 2.7875,-12.80205 2.8908,-5.05887 7.7432,-8.0529 4.8524,-2.99403 11.3567,-4.12969 6.6075,-1.23891 13.9377,-1.23891 4.9556,0 9.808,0.51621 4.8524,0.51621 10.1178,1.54864 l 0,-10.01451 q 0,-4.33618 -1.5487,-7.3302 -1.4454,-3.09727 -4.1297,-4.95564 -2.581,-1.85836 -6.0913,-2.6843 -3.5102,-0.92918 -7.4334,-0.92918 -7.1237,0 -12.9053,2.37458 -5.6783,2.27133 -9.2918,7.02047 l -9.4983,-10.11774 z m 50.8985,36.75426 q -3.3038,-0.10324 -8.3627,-0.82594 -4.9556,-0.82593 -10.5307,-0.82593 -4.0264,0 -8.0529,0.61945 -4.0264,0.51621 -7.227,2.16809 -3.0972,1.65188 -5.0588,4.74915 -1.9616,3.09727 -1.9616,8.15614 0,2.6843 1.0324,5.16212 1.0324,2.37457 2.994,4.12969 2.0649,1.75512 4.9557,2.78754 2.8907,1.03242 6.7107,1.03242 3.407,0 6.9172,-0.61945 3.5103,-0.61945 6.814,-1.75512 3.407,-1.23891 6.4011,-2.89078 2.994,-1.75512 5.3686,-3.92321 l 0,-17.96417 z"
       style="font-style:normal;font-variant:normal;font-weight:normal;font-stretch:normal;font-size:211.4402771px;font-family:Rokkitt;-inkscape-font-specification:Rokkitt;fill:#24626a;fill-opacity:1"
       id="path7644" />
    <path
       d="m 1316.1677,411.82935 q -5.5751,8.46587 -15.0734,13.31826 Q 1291.596,430 1278.4842,430 q -11.3566,0 -19.4095,-3.92321 -7.9497,-4.02645 -13.0086,-10.22099 -4.9556,-6.19454 -7.3302,-13.83447 -2.2713,-7.63994 -2.2713,-15.07338 0,-9.4983 3.0973,-17.44796 3.2005,-8.0529 8.7756,-13.83447 5.575,-5.78157 13.215,-8.98208 7.7431,-3.30375 16.8285,-3.30375 4.8524,0 8.7756,1.13566 4.0264,1.13567 7.0204,2.89079 3.0973,1.65187 5.0589,3.61348 1.9616,1.85836 2.6843,3.40699 l -0.413,-9.49829 13.7313,0 0,29.73379 -13.3183,0 q -0.8259,-3.71672 -2.4778,-7.02048 -1.6519,-3.30375 -4.4394,-5.78157 -2.6843,-2.58106 -6.6075,-4.02645 -3.9232,-1.44539 -9.1886,-1.44539 -12.802,0 -19.616,8.0529 -6.7108,8.0529 -6.7108,22.30034 0,6.814 1.6519,12.38908 1.7551,5.57509 4.9556,9.60154 3.3038,3.92321 8.1562,6.09129 4.8524,2.16809 11.2534,2.16809 8.7756,0 16.1058,-3.61348 7.3302,-3.61348 11.9761,-10.7372 l 9.1886,9.18857 z"
       style="font-style:normal;font-variant:normal;font-weight:normal;font-stretch:normal;font-size:211.4402771px;font-family:Rokkitt;-inkscape-font-specification:Rokkitt;fill:#24626a;fill-opacity:1"
       id="path7646" />
    <path
       d="m 1325.5627,416.99146 15.7961,0 0,-95.49915 -15.7961,0 0,-12.49232 31.0759,0 0,74.6442 33.9668,-27.25597 -14.3507,0 0,-11.4599 46.1493,0 0,11.4599 -13.628,0 -34.2764,28.80461 35.3088,31.79863 13.4215,0 0,11.04693 -43.465,0 0,-11.04693 10.9437,0 -34.07,-30.76621 0,30.76621 10.8405,0 0,11.04693 -41.9164,0 0,-11.04693 z"
       style="font-style:normal;font-variant:normal;font-weight:normal;font-stretch:normal;font-size:211.4402771px;font-family:Rokkitt;-inkscape-font-specification:Rokkitt;fill:#24626a;fill-opacity:1"
       id="path7648" />
  </g>
</svg>
