<?xml version="1.0" encoding="UTF-8" standalone="no"?>
<!-- Created with Inkscape (http://www.inkscape.org/) -->

<svg
   xmlns:dc="http://purl.org/dc/elements/1.1/"
   xmlns:cc="http://creativecommons.org/ns#"
   xmlns:rdf="http://www.w3.org/1999/02/22-rdf-syntax-ns#"
   xmlns:svg="http://www.w3.org/2000/svg"
   xmlns="http://www.w3.org/2000/svg"
   xmlns:sodipodi="http://sodipodi.sourceforge.net/DTD/sodipodi-0.dtd"
   xmlns:inkscape="http://www.inkscape.org/namespaces/inkscape"
   width="100"
   height="100"
   id="svg69540"
   version="1.1"
   inkscape:version="0.48.4 r9939"
   sodipodi:docname="jan_icon.svg">
  <defs
     id="defs69542" />
  <sodipodi:namedview
     id="base"
     pagecolor="#ffffff"
     bordercolor="#666666"
     borderopacity="1.0"
     inkscape:pageopacity="0.0"
     inkscape:pageshadow="2"
     inkscape:zoom="1"
     inkscape:cx="-116.5"
     inkscape:cy="62.857143"
     inkscape:document-units="px"
     inkscape:current-layer="layer1"
     showgrid="false"
     inkscape:window-width="1680"
     inkscape:window-height="988"
     inkscape:window-x="-8"
     inkscape:window-y="-8"
     inkscape:window-maximized="1" />
  <metadata
     id="metadata69545">
    <rdf:RDF>
      <cc:Work
         rdf:about="">
        <dc:format>image/svg+xml</dc:format>
        <dc:type
           rdf:resource="http://purl.org/dc/dcmitype/StillImage" />
        <dc:title />
      </cc:Work>
    </rdf:RDF>
  </metadata>
  <g
     inkscape:label="Layer 1"
     inkscape:groupmode="layer"
     id="layer1"
     transform="translate(0,-952.36218)">
    <g
       id="g71287"
       transform="matrix(0.66666667,0,0,0.66666667,0,350.78739)">
      <rect
         y="902.36218"
         x="0"
         height="150"
         width="150"
         id="rect70056"
         style="fill:#60cd9b;fill-opacity:1;fill-rule:evenodd;stroke:none" />
      <path
         style="fill:#ffffff;fill-opacity:1;fill-rule:evenodd;stroke:none"
         inkscape:connector-curvature="0"
         clip-rule="evenodd"
         d="m 106.81838,1003.0516 v -9.95804 c 5.43017,-3.14813 9.08968,-9.00789 9.08968,-15.73366 0,-10.0375 -8.13956,-18.17934 -18.18161,-18.17934 -3.636781,0 -7.007618,1.09104 -9.84885,2.93443 -2.798046,-12.08546 -13.578816,-21.1183 -26.514377,-21.1183 -15.063075,0 -27.271281,12.21275 -27.271281,27.27582 0,8.06683 3.523128,15.29492 9.091943,20.28417 v 11.17398 C 32.325832,993.43896 25,981.72404 25,968.27251 c 0,-20.08411 16.281396,-36.3655 36.363222,-36.3655 13.647006,0 25.523356,7.52813 31.742247,18.64757 1.509262,-0.25685 3.038981,-0.46595 4.620981,-0.46595 15.06308,0 27.27355,12.21275 27.27355,27.27127 0,11.87178 -7.59859,21.94116 -18.18162,25.6917 z M 56.817252,986.45409 c 2.511649,0 4.54597,2.03667 4.54597,4.54597 0,2.5117 -2.034321,4.546 -4.54597,4.546 -2.509376,0 -4.543698,-2.0343 -4.543698,-4.546 0,-2.5093 2.034322,-4.54597 4.543698,-4.54597 z m 0,18.18401 c 2.511649,0 4.54597,2.0343 4.54597,4.5459 0,2.5094 -2.034321,4.5415 -4.54597,4.5415 -2.509376,0 -4.543698,-2.0343 -4.543698,-4.5415 0,-2.5139 2.034322,-4.5459 4.543698,-4.5459 z m 18.183885,-9.09204 c 2.509376,0 4.54597,2.0343 4.54597,4.54604 0,2.5094 -2.036595,4.546 -4.54597,4.546 -2.51165,0 -4.545971,-2.0366 -4.545971,-4.546 0,-2.51394 2.034322,-4.54604 4.545971,-4.54604 z m 0,18.17944 c 2.509376,0 4.54597,2.0365 4.54597,4.5459 0,2.5117 -2.036595,4.546 -4.54597,4.546 -2.51165,0 -4.545971,-2.0343 -4.545971,-4.546 0,-2.5094 2.034322,-4.5459 4.545971,-4.5459 z m 18.179339,-27.27141 c 2.511648,0 4.545974,2.03667 4.545974,4.54597 0,2.5117 -2.034326,4.546 -4.545974,4.546 -2.509377,0 -4.543699,-2.0343 -4.543699,-4.546 0,-2.5093 2.036595,-4.54597 4.543699,-4.54597 z m 0,18.18401 c 2.511648,0 4.545974,2.0343 4.545974,4.5459 0,2.5094 -2.034326,4.5415 -4.545974,4.5415 -2.509377,0 -4.543699,-2.0343 -4.543699,-4.5415 0,-2.5139 2.036595,-4.5459 4.543699,-4.5459 z"
         id="path71278" />
    </g>
    <text
       xml:space="preserve"
       style="font-size:10px;font-style:normal;font-variant:normal;font-weight:normal;font-stretch:normal;line-height:125%;letter-spacing:0px;word-spacing:0px;fill:#ffffff;fill-opacity:1;stroke:none;font-family:Lato;-inkscape-font-specification:Lato"
       x="8.4335327"
       y="1046.6471"
       id="text76054"
       sodipodi:linespacing="125%"><tspan
         sodipodi:role="line"
         id="tspan76056"
         x="8.4335327"
         y="1046.6471">Janurary/February</tspan></text>
  </g>
</svg>
