<?xml version="1.0" encoding="UTF-8" standalone="no"?>
<svg
   xmlns:dc="http://purl.org/dc/elements/1.1/"
   xmlns:cc="http://creativecommons.org/ns#"
   xmlns:rdf="http://www.w3.org/1999/02/22-rdf-syntax-ns#"
   xmlns:svg="http://www.w3.org/2000/svg"
   xmlns="http://www.w3.org/2000/svg"
   xmlns:sodipodi="http://sodipodi.sourceforge.net/DTD/sodipodi-0.dtd"
   xmlns:inkscape="http://www.inkscape.org/namespaces/inkscape"
   viewBox="470 301 571.33038 220.86304"
   id="svg2"
   version="1.1"
   inkscape:version="0.91 r13725"
   sodipodi:docname="logo-title.svg"
   width="571.33038"
   height="220.86304"
   style="fill:#455a64">
  <metadata
     id="metadata10">
    <rdf:RDF>
      <cc:Work
         rdf:about="">
        <dc:format>image/svg+xml</dc:format>
        <dc:type
           rdf:resource="http://purl.org/dc/dcmitype/StillImage" />
        <dc:title></dc:title>
      </cc:Work>
    </rdf:RDF>
  </metadata>
  <defs
     id="defs8">
    <circle
       r="12"
       cy="96.099998"
       cx="33"
       id="p" />
    <circle
       r="12"
       cy="96.099998"
       cx="33"
       id="p-2" />
  </defs>
  <sodipodi:namedview
     pagecolor="#ffffff"
     bordercolor="#666666"
     borderopacity="1"
     objecttolerance="10"
     gridtolerance="10"
     guidetolerance="10"
     inkscape:pageopacity="0"
     inkscape:pageshadow="2"
     inkscape:window-width="1920"
     inkscape:window-height="1017"
     id="namedview6"
     showgrid="false"
     showguides="false"
     inkscape:guide-bbox="true"
     inkscape:snap-bbox="false"
     inkscape:bbox-nodes="true"
     inkscape:zoom="1.4769231"
     inkscape:cx="89.105944"
     inkscape:cy="126.47099"
     inkscape:window-x="-8"
     inkscape:window-y="-8"
     inkscape:window-maximized="1"
     inkscape:current-layer="svg2"
     fit-margin-top="0"
     fit-margin-left="0"
     fit-margin-right="0"
     fit-margin-bottom="0">
    <sodipodi:guide
       position="140.08733,69.752753"
       orientation="-51.503906,0"
       id="guide4961" />
    <sodipodi:guide
       position="140.08733,121.25666"
       orientation="0,405.65918"
       id="guide4963" />
    <sodipodi:guide
       position="545.74651,121.25666"
       orientation="51.503906,0"
       id="guide4965" />
    <sodipodi:guide
       position="545.74651,69.752753"
       orientation="0,-405.65918"
       id="guide4967" />
  </sodipodi:namedview>
  <path
     style="fill:none;fill-opacity:1;stroke:none"
     inkscape:connector-curvature="0"
     d="m 470,301 571.3304,0 0,220.86303 -571.3304,0 z"
     id="path5044" />
  <text
     xml:space="preserve"
     style="font-style:normal;font-variant:normal;font-weight:normal;font-stretch:normal;font-size:35px;line-height:125%;font-family:Lato;-inkscape-font-specification:Lato;letter-spacing:0px;word-spacing:0px;fill:#24626a;fill-opacity:1;stroke:none;stroke-width:1px;stroke-linecap:butt;stroke-linejoin:miter;stroke-opacity:1"
     x="607.49457"
     y="438.34851"
     id="text3338"
     sodipodi:linespacing="125%"><tspan
       sodipodi:role="line"
       id="tspan3340"
       x="607.49457"
       y="438.34851"
       style="font-style:normal;font-variant:normal;font-weight:normal;font-stretch:normal;font-size:90px;font-family:Rokkitt;-inkscape-font-specification:Rokkitt;fill:#24626a;fill-opacity:1">Lawn Track</tspan></text>
  <g
     id="g7552">
    <g
       id="g7474">
      <g
         style="opacity:1;fill:#ffffff;fill-opacity:1"
         transform="matrix(0.19339373,0,0,0.19339373,498.55188,344.34238)"
         id="g7464">
        <path
           inkscape:connector-curvature="0"
           style="opacity:0.7;fill:#ffffff;fill-opacity:1;fill-rule:nonzero;stroke:none"
           clip-path="none"
           d="m 184.65306,298.52969 c -110.459159,0 -200.000119,89.54099 -200.000119,200.00009 0,17.9436 2.37292,35.3659 6.8046303,51.9116 16.56833,4.4448 33.9405397,6.8046 51.9116097,6.8046 110.459039,0 200.000009,-89.541 200.000009,-199.9999 0,-17.9674 -2.36156,-35.3464 -6.80452,-51.91165 -16.56525,-4.44318 -33.94447,-6.80474 -51.91161,-6.80474 z"
           id="path7466" />
        <path
           inkscape:connector-curvature="0"
           style="opacity:0.7;fill:#ffffff;fill-opacity:1;fill-rule:nonzero;stroke:none"
           clip-path="none"
           d="m 325.93659,157.24593 c -110.45892,0 -199.99989,89.54096 -199.99989,200.00015 0,17.9673 2.36156,35.4164 6.80475,51.9816 16.54324,4.4306 33.97051,6.8048 51.91161,6.8048 110.45892,0 199.99989,-89.61127 199.99989,-200.0702 0,-17.96737 -2.36156,-35.34636 -6.80475,-51.91161 -16.56502,-4.44319 -33.94424,-6.80474 -51.91161,-6.80474 z"
           id="path7468" />
        <path
           inkscape:connector-curvature="0"
           style="opacity:0.7;fill:#ffffff;fill-opacity:1;fill-rule:nonzero;stroke:none"
           clip-path="none"
           d="m 184.65306,298.52969 c -17.9438,0 -35.36612,2.373 -51.91161,6.80474 -4.44319,16.56525 -6.80475,33.94425 -6.80475,51.91165 0,110.4589 89.54097,199.9999 199.99989,199.9999 17.97119,0 35.34345,-2.3598 51.91161,-6.8046 4.43174,-16.5457 6.80475,-33.968 6.80475,-51.9116 0,-110.4591 -89.54097,-200.00009 -199.99989,-200.00009 z"
           id="path7470" />
        <path
           inkscape:connector-curvature="0"
           style="opacity:0.7;fill:#ffffff;fill-opacity:1;fill-rule:nonzero;stroke:none"
           clip-path="none"
           d="m 43.369181,157.24593 c -17.96732,0 -35.3463797,2.36155 -51.9116097,6.80474 -4.4430503,16.56525 -6.8046303,33.94424 -6.8046303,51.91161 0,110.45893 89.54096,200.0702 200.000119,200.0702 17.97095,0 35.34322,-2.4301 51.91161,-6.8748 4.43151,-16.5457 6.80452,-33.9681 6.80452,-51.9116 0,-110.45919 -89.54097,-200.00015 -200.000009,-200.00015 z"
           id="path7472" />
      </g>
      <g
         id="g4941"
         transform="matrix(0.19339373,0,0,0.19339373,498.55188,344.34238)"
         style="opacity:1">
        <path
           id="path4420"
           d="m 184.65306,298.52969 c -110.459159,0 -200.000119,89.54099 -200.000119,200.00009 0,17.9436 2.37292,35.3659 6.8046303,51.9116 16.56833,4.4448 33.9405397,6.8046 51.9116097,6.8046 110.459039,0 200.000009,-89.541 200.000009,-199.9999 0,-17.9674 -2.36156,-35.3464 -6.80452,-51.91165 -16.56525,-4.44318 -33.94447,-6.80474 -51.91161,-6.80474 z"
           clip-path="none"
           style="opacity:0.7;fill:#46516b;fill-opacity:1;fill-rule:nonzero;stroke:none"
           inkscape:connector-curvature="0" />
        <path
           id="path4406"
           d="m 325.93659,157.24593 c -110.45892,0 -199.99989,89.54096 -199.99989,200.00015 0,17.9673 2.36156,35.4164 6.80475,51.9816 16.54324,4.4306 33.97051,6.8048 51.91161,6.8048 110.45892,0 199.99989,-89.61127 199.99989,-200.0702 0,-17.96737 -2.36156,-35.34636 -6.80475,-51.91161 -16.56502,-4.44319 -33.94424,-6.80474 -51.91161,-6.80474 z"
           clip-path="none"
           style="opacity:0.7;fill:#31b101;fill-opacity:1;fill-rule:nonzero;stroke:none"
           inkscape:connector-curvature="0" />
        <path
           id="path4415"
           d="m 184.65306,298.52969 c -17.9438,0 -35.36612,2.373 -51.91161,6.80474 -4.44319,16.56525 -6.80475,33.94425 -6.80475,51.91165 0,110.4589 89.54097,199.9999 199.99989,199.9999 17.97119,0 35.34345,-2.3598 51.91161,-6.8046 4.43174,-16.5457 6.80475,-33.968 6.80475,-51.9116 0,-110.4591 -89.54097,-200.00009 -199.99989,-200.00009 z"
           clip-path="none"
           style="opacity:0.7;fill:#4296b8;fill-opacity:1;fill-rule:nonzero;stroke:none"
           inkscape:connector-curvature="0" />
        <path
           id="path4425"
           d="m 43.369181,157.24593 c -17.96732,0 -35.3463797,2.36155 -51.9116097,6.80474 -4.4430503,16.56525 -6.8046303,33.94424 -6.8046303,51.91161 0,110.45893 89.54096,200.0702 200.000119,200.0702 17.97095,0 35.34322,-2.4301 51.91161,-6.8748 4.43151,-16.5457 6.80452,-33.9681 6.80452,-51.9116 0,-110.45919 -89.54097,-200.00015 -200.000009,-200.00015 z"
           clip-path="none"
           style="opacity:0.7;fill:#1c673c;fill-opacity:1;fill-rule:nonzero;stroke:none"
           inkscape:connector-curvature="0" />
      </g>
    </g>
    <g
       style="fill:#ffffff;fill-opacity:1"
       id="g7530">
      <g
         style="opacity:1;fill:#ffffff;fill-opacity:1"
         transform="matrix(0.19339373,0,0,0.19339373,498.55188,344.34238)"
         id="g7532">
        <path
           inkscape:connector-curvature="0"
           style="opacity:0.7;fill:#ffffff;fill-opacity:1;fill-rule:nonzero;stroke:none"
           clip-path="none"
           d="m 184.65306,298.52969 c -110.459159,0 -200.000119,89.54099 -200.000119,200.00009 0,17.9436 2.37292,35.3659 6.8046303,51.9116 16.56833,4.4448 33.9405397,6.8046 51.9116097,6.8046 110.459039,0 200.000009,-89.541 200.000009,-199.9999 0,-17.9674 -2.36156,-35.3464 -6.80452,-51.91165 -16.56525,-4.44318 -33.94447,-6.80474 -51.91161,-6.80474 z"
           id="path7534" />
        <path
           inkscape:connector-curvature="0"
           style="opacity:0.7;fill:#ffffff;fill-opacity:1;fill-rule:nonzero;stroke:none"
           clip-path="none"
           d="m 325.93659,157.24593 c -110.45892,0 -199.99989,89.54096 -199.99989,200.00015 0,17.9673 2.36156,35.4164 6.80475,51.9816 16.54324,4.4306 33.97051,6.8048 51.91161,6.8048 110.45892,0 199.99989,-89.61127 199.99989,-200.0702 0,-17.96737 -2.36156,-35.34636 -6.80475,-51.91161 -16.56502,-4.44319 -33.94424,-6.80474 -51.91161,-6.80474 z"
           id="path7536" />
        <path
           inkscape:connector-curvature="0"
           style="opacity:0.7;fill:#ffffff;fill-opacity:1;fill-rule:nonzero;stroke:none"
           clip-path="none"
           d="m 184.65306,298.52969 c -17.9438,0 -35.36612,2.373 -51.91161,6.80474 -4.44319,16.56525 -6.80475,33.94425 -6.80475,51.91165 0,110.4589 89.54097,199.9999 199.99989,199.9999 17.97119,0 35.34345,-2.3598 51.91161,-6.8046 4.43174,-16.5457 6.80475,-33.968 6.80475,-51.9116 0,-110.4591 -89.54097,-200.00009 -199.99989,-200.00009 z"
           id="path7538" />
        <path
           inkscape:connector-curvature="0"
           style="opacity:0.7;fill:#ffffff;fill-opacity:1;fill-rule:nonzero;stroke:none"
           clip-path="none"
           d="m 43.369181,157.24593 c -17.96732,0 -35.3463797,2.36155 -51.9116097,6.80474 -4.4430503,16.56525 -6.8046303,33.94424 -6.8046303,51.91161 0,110.45893 89.54096,200.0702 200.000119,200.0702 17.97095,0 35.34322,-2.4301 51.91161,-6.8748 4.43151,-16.5457 6.80452,-33.9681 6.80452,-51.9116 0,-110.45919 -89.54097,-200.00015 -200.000009,-200.00015 z"
           id="path7540" />
      </g>
      <g
         id="g7542"
         transform="matrix(0.19339373,0,0,0.19339373,498.55188,344.34238)"
         style="opacity:1;fill:#ffffff;fill-opacity:1">
        <path
           id="path7544"
           d="m 184.65306,298.52969 c -110.459159,0 -200.000119,89.54099 -200.000119,200.00009 0,17.9436 2.37292,35.3659 6.8046303,51.9116 16.56833,4.4448 33.9405397,6.8046 51.9116097,6.8046 110.459039,0 200.000009,-89.541 200.000009,-199.9999 0,-17.9674 -2.36156,-35.3464 -6.80452,-51.91165 -16.56525,-4.44318 -33.94447,-6.80474 -51.91161,-6.80474 z"
           clip-path="none"
           style="opacity:0.7;fill:#ffffff;fill-opacity:1;fill-rule:nonzero;stroke:none"
           inkscape:connector-curvature="0" />
        <path
           id="path7546"
           d="m 325.93659,157.24593 c -110.45892,0 -199.99989,89.54096 -199.99989,200.00015 0,17.9673 2.36156,35.4164 6.80475,51.9816 16.54324,4.4306 33.97051,6.8048 51.91161,6.8048 110.45892,0 199.99989,-89.61127 199.99989,-200.0702 0,-17.96737 -2.36156,-35.34636 -6.80475,-51.91161 -16.56502,-4.44319 -33.94424,-6.80474 -51.91161,-6.80474 z"
           clip-path="none"
           style="opacity:0.7;fill:#ffffff;fill-opacity:1;fill-rule:nonzero;stroke:none"
           inkscape:connector-curvature="0" />
        <path
           id="path7548"
           d="m 184.65306,298.52969 c -17.9438,0 -35.36612,2.373 -51.91161,6.80474 -4.44319,16.56525 -6.80475,33.94425 -6.80475,51.91165 0,110.4589 89.54097,199.9999 199.99989,199.9999 17.97119,0 35.34345,-2.3598 51.91161,-6.8046 4.43174,-16.5457 6.80475,-33.968 6.80475,-51.9116 0,-110.4591 -89.54097,-200.00009 -199.99989,-200.00009 z"
           clip-path="none"
           style="opacity:0.7;fill:#ffffff;fill-opacity:1;fill-rule:nonzero;stroke:none"
           inkscape:connector-curvature="0" />
        <path
           id="path7550"
           d="m 43.369181,157.24593 c -17.96732,0 -35.3463797,2.36155 -51.9116097,6.80474 -4.4430503,16.56525 -6.8046303,33.94424 -6.8046303,51.91161 0,110.45893 89.54096,200.0702 200.000119,200.0702 17.97095,0 35.34322,-2.4301 51.91161,-6.8748 4.43151,-16.5457 6.80452,-33.9681 6.80452,-51.9116 0,-110.45919 -89.54097,-200.00015 -200.000009,-200.00015 z"
           clip-path="none"
           style="opacity:0.7;fill:#ffffff;fill-opacity:1;fill-rule:nonzero;stroke:none"
           inkscape:connector-curvature="0" />
      </g>
    </g>
    <g
       id="g7486">
      <g
         id="g7488"
         transform="matrix(0.19339373,0,0,0.19339373,498.55188,344.34238)"
         style="opacity:1;fill:#ffffff;fill-opacity:1">
        <path
           id="path7490"
           d="m 184.65306,298.52969 c -110.459159,0 -200.000119,89.54099 -200.000119,200.00009 0,17.9436 2.37292,35.3659 6.8046303,51.9116 16.56833,4.4448 33.9405397,6.8046 51.9116097,6.8046 110.459039,0 200.000009,-89.541 200.000009,-199.9999 0,-17.9674 -2.36156,-35.3464 -6.80452,-51.91165 -16.56525,-4.44318 -33.94447,-6.80474 -51.91161,-6.80474 z"
           clip-path="none"
           style="opacity:0.7;fill:#ffffff;fill-opacity:1;fill-rule:nonzero;stroke:none"
           inkscape:connector-curvature="0" />
        <path
           id="path7492"
           d="m 325.93659,157.24593 c -110.45892,0 -199.99989,89.54096 -199.99989,200.00015 0,17.9673 2.36156,35.4164 6.80475,51.9816 16.54324,4.4306 33.97051,6.8048 51.91161,6.8048 110.45892,0 199.99989,-89.61127 199.99989,-200.0702 0,-17.96737 -2.36156,-35.34636 -6.80475,-51.91161 -16.56502,-4.44319 -33.94424,-6.80474 -51.91161,-6.80474 z"
           clip-path="none"
           style="opacity:0.7;fill:#ffffff;fill-opacity:1;fill-rule:nonzero;stroke:none"
           inkscape:connector-curvature="0" />
        <path
           id="path7494"
           d="m 184.65306,298.52969 c -17.9438,0 -35.36612,2.373 -51.91161,6.80474 -4.44319,16.56525 -6.80475,33.94425 -6.80475,51.91165 0,110.4589 89.54097,199.9999 199.99989,199.9999 17.97119,0 35.34345,-2.3598 51.91161,-6.8046 4.43174,-16.5457 6.80475,-33.968 6.80475,-51.9116 0,-110.4591 -89.54097,-200.00009 -199.99989,-200.00009 z"
           clip-path="none"
           style="opacity:0.7;fill:#ffffff;fill-opacity:1;fill-rule:nonzero;stroke:none"
           inkscape:connector-curvature="0" />
        <path
           id="path7496"
           d="m 43.369181,157.24593 c -17.96732,0 -35.3463797,2.36155 -51.9116097,6.80474 -4.4430503,16.56525 -6.8046303,33.94424 -6.8046303,51.91161 0,110.45893 89.54096,200.0702 200.000119,200.0702 17.97095,0 35.34322,-2.4301 51.91161,-6.8748 4.43151,-16.5457 6.80452,-33.9681 6.80452,-51.9116 0,-110.45919 -89.54097,-200.00015 -200.000009,-200.00015 z"
           clip-path="none"
           style="opacity:0.7;fill:#ffffff;fill-opacity:1;fill-rule:nonzero;stroke:none"
           inkscape:connector-curvature="0" />
      </g>
      <g
         style="opacity:1"
         transform="matrix(0.19339373,0,0,0.19339373,498.55188,344.34238)"
         id="g7498">
        <path
           inkscape:connector-curvature="0"
           style="opacity:0.7;fill:#46516b;fill-opacity:1;fill-rule:nonzero;stroke:none"
           clip-path="none"
           d="m 184.65306,298.52969 c -110.459159,0 -200.000119,89.54099 -200.000119,200.00009 0,17.9436 2.37292,35.3659 6.8046303,51.9116 16.56833,4.4448 33.9405397,6.8046 51.9116097,6.8046 110.459039,0 200.000009,-89.541 200.000009,-199.9999 0,-17.9674 -2.36156,-35.3464 -6.80452,-51.91165 -16.56525,-4.44318 -33.94447,-6.80474 -51.91161,-6.80474 z"
           id="path7500" />
        <path
           inkscape:connector-curvature="0"
           style="opacity:0.7;fill:#31b101;fill-opacity:1;fill-rule:nonzero;stroke:none"
           clip-path="none"
           d="m 325.93659,157.24593 c -110.45892,0 -199.99989,89.54096 -199.99989,200.00015 0,17.9673 2.36156,35.4164 6.80475,51.9816 16.54324,4.4306 33.97051,6.8048 51.91161,6.8048 110.45892,0 199.99989,-89.61127 199.99989,-200.0702 0,-17.96737 -2.36156,-35.34636 -6.80475,-51.91161 -16.56502,-4.44319 -33.94424,-6.80474 -51.91161,-6.80474 z"
           id="path7502" />
        <path
           inkscape:connector-curvature="0"
           style="opacity:0.7;fill:#4296b8;fill-opacity:1;fill-rule:nonzero;stroke:none"
           clip-path="none"
           d="m 184.65306,298.52969 c -17.9438,0 -35.36612,2.373 -51.91161,6.80474 -4.44319,16.56525 -6.80475,33.94425 -6.80475,51.91165 0,110.4589 89.54097,199.9999 199.99989,199.9999 17.97119,0 35.34345,-2.3598 51.91161,-6.8046 4.43174,-16.5457 6.80475,-33.968 6.80475,-51.9116 0,-110.4591 -89.54097,-200.00009 -199.99989,-200.00009 z"
           id="path7504" />
        <path
           inkscape:connector-curvature="0"
           style="opacity:0.7;fill:#1c673c;fill-opacity:1;fill-rule:nonzero;stroke:none"
           clip-path="none"
           d="m 43.369181,157.24593 c -17.96732,0 -35.3463797,2.36155 -51.9116097,6.80474 -4.4430503,16.56525 -6.8046303,33.94424 -6.8046303,51.91161 0,110.45893 89.54096,200.0702 200.000119,200.0702 17.97095,0 35.34322,-2.4301 51.91161,-6.8748 4.43151,-16.5457 6.80452,-33.9681 6.80452,-51.9116 0,-110.45919 -89.54097,-200.00015 -200.000009,-200.00015 z"
           id="path7506" />
      </g>
    </g>
  </g>
</svg>
