<?xml version="1.0" encoding="UTF-8" standalone="no"?>
<svg
   xmlns:dc="http://purl.org/dc/elements/1.1/"
   xmlns:cc="http://creativecommons.org/ns#"
   xmlns:rdf="http://www.w3.org/1999/02/22-rdf-syntax-ns#"
   xmlns:svg="http://www.w3.org/2000/svg"
   xmlns="http://www.w3.org/2000/svg"
   xmlns:sodipodi="http://sodipodi.sourceforge.net/DTD/sodipodi-0.dtd"
   xmlns:inkscape="http://www.inkscape.org/namespaces/inkscape"
   viewBox="470 301 571.33038 220.86304"
   id="svg2"
   version="1.1"
   inkscape:version="0.91 r13725"
   sodipodi:docname="logo-title.svg"
   width="571.33038"
   height="220.86304"
   style="fill:#455a64">
  <metadata
     id="metadata10">
    <rdf:RDF>
      <cc:Work
         rdf:about="">
        <dc:format>image/svg+xml</dc:format>
        <dc:type
           rdf:resource="http://purl.org/dc/dcmitype/StillImage" />
        <dc:title></dc:title>
      </cc:Work>
    </rdf:RDF>
  </metadata>
  <defs
     id="defs8">
    <circle
       r="12"
       cy="96.099998"
       cx="33"
       id="p" />
    <circle
       r="12"
       cy="96.099998"
       cx="33"
       id="p-2" />
  </defs>
  <sodipodi:namedview
     pagecolor="#ffffff"
     bordercolor="#666666"
     borderopacity="1"
     objecttolerance="10"
     gridtolerance="10"
     guidetolerance="10"
     inkscape:pageopacity="0"
     inkscape:pageshadow="2"
     inkscape:window-width="1920"
     inkscape:window-height="1017"
     id="namedview6"
     showgrid="false"
     showguides="false"
     inkscape:guide-bbox="true"
     inkscape:snap-bbox="false"
     inkscape:bbox-nodes="true"
     inkscape:zoom="1.4769231"
     inkscape:cx="89.105944"
     inkscape:cy="72.304328"
     inkscape:window-x="-8"
     inkscape:window-y="-8"
     inkscape:window-maximized="1"
     inkscape:current-layer="text3338"
     fit-margin-top="0"
     fit-margin-left="0"
     fit-margin-right="0"
     fit-margin-bottom="0">
    <sodipodi:guide
       position="140.08733,69.752753"
       orientation="-51.503906,0"
       id="guide4961" />
    <sodipodi:guide
       position="140.08733,121.25666"
       orientation="0,405.65918"
       id="guide4963" />
    <sodipodi:guide
       position="545.74651,121.25666"
       orientation="51.503906,0"
       id="guide4965" />
    <sodipodi:guide
       position="545.74651,69.752753"
       orientation="0,-405.65918"
       id="guide4967" />
  </sodipodi:namedview>
  <path
     style="fill:none;fill-opacity:1;stroke:none"
     inkscape:connector-curvature="0"
     d="m 470,301 571.3304,0 0,220.86303 -571.3304,0 z"
     id="path5044" />
  <g
     style="font-style:normal;font-variant:normal;font-weight:normal;font-stretch:normal;font-size:35px;line-height:125%;font-family:Lato;-inkscape-font-specification:Lato;letter-spacing:0px;word-spacing:0px;fill:#24626a;fill-opacity:1;stroke:none;stroke-width:1px;stroke-linecap:butt;stroke-linejoin:miter;stroke-opacity:1"
     id="text3338">
    <path
       d="m 610.08734,433.20691 6.94336,0 0,-40.3418 -6.94336,0 0,-5.18554 20.83008,0 0,5.18554 -6.81152,0 0,40.3418 18.01757,0 0,-14.72168 6.37207,0 0,19.86328 -38.4082,0 0,-5.1416 z"
       style="font-style:normal;font-variant:normal;font-weight:normal;font-stretch:normal;font-size:90px;font-family:Rokkitt;-inkscape-font-specification:Rokkitt;fill:#24626a;fill-opacity:1"
       id="path7588" />
    <path
       d="m 655.21918,407.23523 q 2.37304,-2.37305 5.88867,-3.64746 3.51562,-1.27442 8.04199,-1.27442 4.13086,0 6.89942,1.01075 2.76855,0.96679 4.39453,2.59277 1.62597,1.62598 2.28515,3.73535 0.70313,2.10938 0.70313,4.35059 l 0,19.64355 6.32812,0 0,4.70215 -12.17285,0 -0.0879,-3.64746 q -1.75781,1.27441 -3.2959,2.15332 -1.53808,0.83496 -3.03222,1.3623 -1.4502,0.4834 -2.94434,0.70313 -1.49414,0.21973 -3.12012,0.21973 -2.76855,0 -5.00976,-0.83496 -2.19727,-0.87891 -3.7793,-2.28516 -1.53809,-1.40625 -2.37305,-3.25195 -0.79101,-1.88965 -0.79101,-3.91114 0,-3.2959 1.18652,-5.44922 1.23047,-2.15332 3.2959,-3.42773 2.06543,-1.27441 4.83398,-1.75781 2.8125,-0.52735 5.93262,-0.52735 2.10938,0 4.17481,0.21973 2.06543,0.21973 4.30664,0.65918 l 0,-4.2627 q 0,-1.8457 -0.65918,-3.12011 -0.61524,-1.31836 -1.75782,-2.10938 -1.09863,-0.79101 -2.59277,-1.14258 -1.49414,-0.3955 -3.16406,-0.3955 -3.03223,0 -5.49317,1.01074 -2.41699,0.9668 -3.95507,2.98828 l -4.04297,-4.30664 z m 21.66504,15.64453 q -1.40625,-0.0439 -3.55957,-0.35156 -2.10938,-0.35156 -4.48243,-0.35156 -1.71386,0 -3.42773,0.26367 -1.71387,0.21972 -3.07617,0.92285 -1.31836,0.70312 -2.15332,2.02148 -0.83496,1.31836 -0.83496,3.47168 0,1.14258 0.43945,2.19727 0.43945,1.01074 1.27441,1.75781 0.87891,0.74707 2.10938,1.18652 1.23047,0.43946 2.85644,0.43946 1.4502,0 2.94434,-0.26367 1.49414,-0.26368 2.90039,-0.74707 1.4502,-0.52735 2.72461,-1.23047 1.27441,-0.74707 2.28516,-1.66992 l 0,-7.64649 z"
       style="font-style:normal;font-variant:normal;font-weight:normal;font-stretch:normal;font-size:90px;font-family:Rokkitt;-inkscape-font-specification:Rokkitt;fill:#24626a;fill-opacity:1"
       id="path7590" />
    <path
       d="m 694.63812,407.85046 -4.79004,0 0,-4.87793 15.55664,0 0,4.87793 -5.09765,0 3.82324,12.39258 3.7793,11.20606 3.95508,-11.25 3.82324,-12.34864 -4.17481,0 0,-4.87793 17.49024,0 0,4.87793 -4.17481,0 7.9541,24.08204 7.5586,-24.08204 -5.36133,0 0,-4.87793 16.3916,0 0,4.87793 -5.36133,0 -10.2832,30.49805 -6.24023,0 -9.00879,-26.63086 -9.31641,26.63086 -6.28418,0 -10.23926,-30.49805 z"
       style="font-style:normal;font-variant:normal;font-weight:normal;font-stretch:normal;font-size:90px;font-family:Rokkitt;-inkscape-font-specification:Rokkitt;fill:#24626a;fill-opacity:1"
       id="path7592" />
    <path
       d="m 754.22797,433.64636 6.28418,0 0,-25.7959 -6.54786,0 0,-4.87793 13.00782,0 0.17578,4.57032 q 3.38379,-2.63672 6.28418,-3.91114 2.90039,-1.31836 6.15234,-1.31836 2.41699,0 4.30664,0.79102 1.9336,0.79102 3.25196,2.28516 1.3623,1.49414 2.06543,3.60351 0.70312,2.06543 0.70312,4.65821 l -0.0439,19.99511 6.37208,0 0,4.70215 -17.66602,0 0,-4.70215 4.83398,0 0,-17.57812 q 0,-3.86719 -1.18652,-6.02051 -1.18652,-2.19727 -4.30664,-2.19727 -3.03223,0 -5.71289,1.58204 -2.68066,1.58203 -5.05371,3.86718 l 0,20.34668 6.37207,0 0,4.70215 -19.29199,0 0,-4.70215 z"
       style="font-style:normal;font-variant:normal;font-weight:normal;font-stretch:normal;font-size:90px;font-family:Rokkitt;-inkscape-font-specification:Rokkitt;fill:#24626a;fill-opacity:1"
       id="path7594" />
    <path
       d="m 827.30902,433.20691 7.69043,0 0,-40.3418 -11.64551,0 0,10.10742 -5.66894,0 0,-15.29296 41.61621,0 0,15.29296 -5.75684,0 0,-10.10742 -11.38183,0 0,40.3418 7.64648,0 0,5.1416 -22.5,0 0,-5.1416 z"
       style="font-style:normal;font-variant:normal;font-weight:normal;font-stretch:normal;font-size:90px;font-family:Rokkitt;-inkscape-font-specification:Rokkitt;fill:#24626a;fill-opacity:1"
       id="path7596" />
    <path
       d="m 864.13519,433.64636 7.0752,0 0,-25.7959 -7.33887,0 0,-4.87793 12.7002,0 0.0439,7.69043 q 1.18653,-2.41699 2.54883,-3.99902 1.3623,-1.62598 2.94434,-2.59277 1.58203,-0.9668 3.42773,-1.36231 1.8457,-0.39551 3.95508,-0.39551 1.88965,0 4.08691,0.26368 l -0.21972,6.10839 q -0.0439,-0.0439 -0.70313,-0.0439 -0.61523,-0.0439 -1.3623,-0.0439 -0.74707,-0.0439 -1.4502,-0.0439 -0.65918,0 -0.79101,0 -3.25196,0 -5.40528,0.92285 -2.15332,0.92285 -3.47168,2.63672 -1.27441,1.71387 -1.8457,4.13086 -0.52734,2.41699 -0.52734,5.40527 l 0,11.99707 7.73437,0 0,4.70215 -21.40137,0 0,-4.70215 z"
       style="font-style:normal;font-variant:normal;font-weight:normal;font-stretch:normal;font-size:90px;font-family:Rokkitt;-inkscape-font-specification:Rokkitt;fill:#24626a;fill-opacity:1"
       id="path7598" />
    <path
       d="m 899.20355,407.23523 q 2.37305,-2.37305 5.88867,-3.64746 3.51563,-1.27442 8.042,-1.27442 4.13086,0 6.89941,1.01075 2.76856,0.96679 4.39453,2.59277 1.62598,1.62598 2.28516,3.73535 0.70312,2.10938 0.70312,4.35059 l 0,19.64355 6.32813,0 0,4.70215 -12.17285,0 -0.0879,-3.64746 q -1.75782,1.27441 -3.2959,2.15332 -1.53809,0.83496 -3.03223,1.3623 -1.45019,0.4834 -2.94434,0.70313 -1.49414,0.21973 -3.12011,0.21973 -2.76856,0 -5.00977,-0.83496 -2.19726,-0.87891 -3.77929,-2.28516 -1.53809,-1.40625 -2.37305,-3.25195 -0.79102,-1.88965 -0.79102,-3.91114 0,-3.2959 1.18653,-5.44922 1.23046,-2.15332 3.29589,-3.42773 2.06543,-1.27441 4.83399,-1.75781 2.8125,-0.52735 5.93262,-0.52735 2.10937,0 4.1748,0.21973 2.06543,0.21973 4.30664,0.65918 l 0,-4.2627 q 0,-1.8457 -0.65918,-3.12011 -0.61523,-1.31836 -1.75781,-2.10938 -1.09863,-0.79101 -2.59277,-1.14258 -1.49414,-0.3955 -3.16407,-0.3955 -3.03222,0 -5.49316,1.01074 -2.41699,0.9668 -3.95508,2.98828 l -4.04297,-4.30664 z m 21.66504,15.64453 q -1.40625,-0.0439 -3.55957,-0.35156 -2.10937,-0.35156 -4.48242,-0.35156 -1.71387,0 -3.42774,0.26367 -1.71386,0.21972 -3.07617,0.92285 -1.31836,0.70312 -2.15332,2.02148 -0.83496,1.31836 -0.83496,3.47168 0,1.14258 0.43945,2.19727 0.43946,1.01074 1.27442,1.75781 0.87891,0.74707 2.10937,1.18652 1.23047,0.43946 2.85645,0.43946 1.45019,0 2.94434,-0.26367 1.49414,-0.26368 2.90039,-0.74707 1.45019,-0.52735 2.72461,-1.23047 1.27441,-0.74707 2.28515,-1.66992 l 0,-7.64649 z"
       style="font-style:normal;font-variant:normal;font-weight:normal;font-stretch:normal;font-size:90px;font-family:Rokkitt;-inkscape-font-specification:Rokkitt;fill:#24626a;fill-opacity:1"
       id="path7600" />
    <path
       d="m 970.17523,431.4491 q -2.37304,3.60351 -6.41601,5.66894 -4.04297,2.06543 -9.62403,2.06543 -4.83398,0 -8.26172,-1.66992 -3.38378,-1.71387 -5.53711,-4.35059 -2.10937,-2.63671 -3.12011,-5.88867 -0.9668,-3.25195 -0.9668,-6.41601 0,-4.04297 1.31836,-7.42676 1.3623,-3.42774 3.73535,-5.88867 2.37305,-2.46094 5.625,-3.82325 3.2959,-1.40625 7.16309,-1.40625 2.06543,0 3.73535,0.4834 1.71387,0.4834 2.98828,1.23047 1.31836,0.70313 2.15332,1.53809 0.83496,0.79101 1.14258,1.45019 l -0.17578,-4.04297 5.84472,0 0,12.65625 -5.66894,0 q -0.35156,-1.58203 -1.05469,-2.98828 -0.70312,-1.40625 -1.88965,-2.46093 -1.14258,-1.09864 -2.8125,-1.71387 -1.66992,-0.61524 -3.91113,-0.61524 -5.44922,0 -8.34961,3.42774 -2.85644,3.42773 -2.85644,9.49219 0,2.90039 0.70312,5.27343 0.74707,2.37305 2.10938,4.08692 1.40625,1.66992 3.47168,2.59277 2.06542,0.92285 4.79003,0.92285 3.73536,0 6.85547,-1.53808 3.12012,-1.53809 5.09766,-4.57032 l 3.91113,3.91114 z"
       style="font-style:normal;font-variant:normal;font-weight:normal;font-stretch:normal;font-size:90px;font-family:Rokkitt;-inkscape-font-specification:Rokkitt;fill:#24626a;fill-opacity:1"
       id="path7602" />
    <path
       d="m 974.17426,433.64636 6.72363,0 0,-40.64941 -6.72363,0 0,-5.31738 13.22753,0 0,31.77246 14.45801,-11.60157 -6.1084,0 0,-4.87793 19.6436,0 0,4.87793 -5.8008,0 -14.58987,12.26075 15.02927,13.53515 5.7129,0 0,4.70215 -18.50096,0 0,-4.70215 4.65816,0 -14.50191,-13.0957 0,13.0957 4.61426,0 0,4.70215 -17.84179,0 0,-4.70215 z"
       style="font-style:normal;font-variant:normal;font-weight:normal;font-stretch:normal;font-size:90px;font-family:Rokkitt;-inkscape-font-specification:Rokkitt;fill:#24626a;fill-opacity:1"
       id="path7604" />
  </g>
  <g
     id="g7552">
    <g
       id="g7474">
      <g
         style="opacity:1;fill:#ffffff;fill-opacity:1"
         transform="matrix(0.19339373,0,0,0.19339373,498.55188,344.34238)"
         id="g7464">
        <path
           inkscape:connector-curvature="0"
           style="opacity:0.7;fill:#ffffff;fill-opacity:1;fill-rule:nonzero;stroke:none"
           clip-path="none"
           d="m 184.65306,298.52969 c -110.459159,0 -200.000119,89.54099 -200.000119,200.00009 0,17.9436 2.37292,35.3659 6.8046303,51.9116 16.56833,4.4448 33.9405397,6.8046 51.9116097,6.8046 110.459039,0 200.000009,-89.541 200.000009,-199.9999 0,-17.9674 -2.36156,-35.3464 -6.80452,-51.91165 -16.56525,-4.44318 -33.94447,-6.80474 -51.91161,-6.80474 z"
           id="path7466" />
        <path
           inkscape:connector-curvature="0"
           style="opacity:0.7;fill:#ffffff;fill-opacity:1;fill-rule:nonzero;stroke:none"
           clip-path="none"
           d="m 325.93659,157.24593 c -110.45892,0 -199.99989,89.54096 -199.99989,200.00015 0,17.9673 2.36156,35.4164 6.80475,51.9816 16.54324,4.4306 33.97051,6.8048 51.91161,6.8048 110.45892,0 199.99989,-89.61127 199.99989,-200.0702 0,-17.96737 -2.36156,-35.34636 -6.80475,-51.91161 -16.56502,-4.44319 -33.94424,-6.80474 -51.91161,-6.80474 z"
           id="path7468" />
        <path
           inkscape:connector-curvature="0"
           style="opacity:0.7;fill:#ffffff;fill-opacity:1;fill-rule:nonzero;stroke:none"
           clip-path="none"
           d="m 184.65306,298.52969 c -17.9438,0 -35.36612,2.373 -51.91161,6.80474 -4.44319,16.56525 -6.80475,33.94425 -6.80475,51.91165 0,110.4589 89.54097,199.9999 199.99989,199.9999 17.97119,0 35.34345,-2.3598 51.91161,-6.8046 4.43174,-16.5457 6.80475,-33.968 6.80475,-51.9116 0,-110.4591 -89.54097,-200.00009 -199.99989,-200.00009 z"
           id="path7470" />
        <path
           inkscape:connector-curvature="0"
           style="opacity:0.7;fill:#ffffff;fill-opacity:1;fill-rule:nonzero;stroke:none"
           clip-path="none"
           d="m 43.369181,157.24593 c -17.96732,0 -35.3463797,2.36155 -51.9116097,6.80474 -4.4430503,16.56525 -6.8046303,33.94424 -6.8046303,51.91161 0,110.45893 89.54096,200.0702 200.000119,200.0702 17.97095,0 35.34322,-2.4301 51.91161,-6.8748 4.43151,-16.5457 6.80452,-33.9681 6.80452,-51.9116 0,-110.45919 -89.54097,-200.00015 -200.000009,-200.00015 z"
           id="path7472" />
      </g>
      <g
         id="g4941"
         transform="matrix(0.19339373,0,0,0.19339373,498.55188,344.34238)"
         style="opacity:1">
        <path
           id="path4420"
           d="m 184.65306,298.52969 c -110.459159,0 -200.000119,89.54099 -200.000119,200.00009 0,17.9436 2.37292,35.3659 6.8046303,51.9116 16.56833,4.4448 33.9405397,6.8046 51.9116097,6.8046 110.459039,0 200.000009,-89.541 200.000009,-199.9999 0,-17.9674 -2.36156,-35.3464 -6.80452,-51.91165 -16.56525,-4.44318 -33.94447,-6.80474 -51.91161,-6.80474 z"
           clip-path="none"
           style="opacity:0.7;fill:#46516b;fill-opacity:1;fill-rule:nonzero;stroke:none"
           inkscape:connector-curvature="0" />
        <path
           id="path4406"
           d="m 325.93659,157.24593 c -110.45892,0 -199.99989,89.54096 -199.99989,200.00015 0,17.9673 2.36156,35.4164 6.80475,51.9816 16.54324,4.4306 33.97051,6.8048 51.91161,6.8048 110.45892,0 199.99989,-89.61127 199.99989,-200.0702 0,-17.96737 -2.36156,-35.34636 -6.80475,-51.91161 -16.56502,-4.44319 -33.94424,-6.80474 -51.91161,-6.80474 z"
           clip-path="none"
           style="opacity:0.7;fill:#31b101;fill-opacity:1;fill-rule:nonzero;stroke:none"
           inkscape:connector-curvature="0" />
        <path
           id="path4415"
           d="m 184.65306,298.52969 c -17.9438,0 -35.36612,2.373 -51.91161,6.80474 -4.44319,16.56525 -6.80475,33.94425 -6.80475,51.91165 0,110.4589 89.54097,199.9999 199.99989,199.9999 17.97119,0 35.34345,-2.3598 51.91161,-6.8046 4.43174,-16.5457 6.80475,-33.968 6.80475,-51.9116 0,-110.4591 -89.54097,-200.00009 -199.99989,-200.00009 z"
           clip-path="none"
           style="opacity:0.7;fill:#4296b8;fill-opacity:1;fill-rule:nonzero;stroke:none"
           inkscape:connector-curvature="0" />
        <path
           id="path4425"
           d="m 43.369181,157.24593 c -17.96732,0 -35.3463797,2.36155 -51.9116097,6.80474 -4.4430503,16.56525 -6.8046303,33.94424 -6.8046303,51.91161 0,110.45893 89.54096,200.0702 200.000119,200.0702 17.97095,0 35.34322,-2.4301 51.91161,-6.8748 4.43151,-16.5457 6.80452,-33.9681 6.80452,-51.9116 0,-110.45919 -89.54097,-200.00015 -200.000009,-200.00015 z"
           clip-path="none"
           style="opacity:0.7;fill:#1c673c;fill-opacity:1;fill-rule:nonzero;stroke:none"
           inkscape:connector-curvature="0" />
      </g>
    </g>
    <g
       style="fill:#ffffff;fill-opacity:1"
       id="g7530">
      <g
         style="opacity:1;fill:#ffffff;fill-opacity:1"
         transform="matrix(0.19339373,0,0,0.19339373,498.55188,344.34238)"
         id="g7532">
        <path
           inkscape:connector-curvature="0"
           style="opacity:0.7;fill:#ffffff;fill-opacity:1;fill-rule:nonzero;stroke:none"
           clip-path="none"
           d="m 184.65306,298.52969 c -110.459159,0 -200.000119,89.54099 -200.000119,200.00009 0,17.9436 2.37292,35.3659 6.8046303,51.9116 16.56833,4.4448 33.9405397,6.8046 51.9116097,6.8046 110.459039,0 200.000009,-89.541 200.000009,-199.9999 0,-17.9674 -2.36156,-35.3464 -6.80452,-51.91165 -16.56525,-4.44318 -33.94447,-6.80474 -51.91161,-6.80474 z"
           id="path7534" />
        <path
           inkscape:connector-curvature="0"
           style="opacity:0.7;fill:#ffffff;fill-opacity:1;fill-rule:nonzero;stroke:none"
           clip-path="none"
           d="m 325.93659,157.24593 c -110.45892,0 -199.99989,89.54096 -199.99989,200.00015 0,17.9673 2.36156,35.4164 6.80475,51.9816 16.54324,4.4306 33.97051,6.8048 51.91161,6.8048 110.45892,0 199.99989,-89.61127 199.99989,-200.0702 0,-17.96737 -2.36156,-35.34636 -6.80475,-51.91161 -16.56502,-4.44319 -33.94424,-6.80474 -51.91161,-6.80474 z"
           id="path7536" />
        <path
           inkscape:connector-curvature="0"
           style="opacity:0.7;fill:#ffffff;fill-opacity:1;fill-rule:nonzero;stroke:none"
           clip-path="none"
           d="m 184.65306,298.52969 c -17.9438,0 -35.36612,2.373 -51.91161,6.80474 -4.44319,16.56525 -6.80475,33.94425 -6.80475,51.91165 0,110.4589 89.54097,199.9999 199.99989,199.9999 17.97119,0 35.34345,-2.3598 51.91161,-6.8046 4.43174,-16.5457 6.80475,-33.968 6.80475,-51.9116 0,-110.4591 -89.54097,-200.00009 -199.99989,-200.00009 z"
           id="path7538" />
        <path
           inkscape:connector-curvature="0"
           style="opacity:0.7;fill:#ffffff;fill-opacity:1;fill-rule:nonzero;stroke:none"
           clip-path="none"
           d="m 43.369181,157.24593 c -17.96732,0 -35.3463797,2.36155 -51.9116097,6.80474 -4.4430503,16.56525 -6.8046303,33.94424 -6.8046303,51.91161 0,110.45893 89.54096,200.0702 200.000119,200.0702 17.97095,0 35.34322,-2.4301 51.91161,-6.8748 4.43151,-16.5457 6.80452,-33.9681 6.80452,-51.9116 0,-110.45919 -89.54097,-200.00015 -200.000009,-200.00015 z"
           id="path7540" />
      </g>
      <g
         id="g7542"
         transform="matrix(0.19339373,0,0,0.19339373,498.55188,344.34238)"
         style="opacity:1;fill:#ffffff;fill-opacity:1">
        <path
           id="path7544"
           d="m 184.65306,298.52969 c -110.459159,0 -200.000119,89.54099 -200.000119,200.00009 0,17.9436 2.37292,35.3659 6.8046303,51.9116 16.56833,4.4448 33.9405397,6.8046 51.9116097,6.8046 110.459039,0 200.000009,-89.541 200.000009,-199.9999 0,-17.9674 -2.36156,-35.3464 -6.80452,-51.91165 -16.56525,-4.44318 -33.94447,-6.80474 -51.91161,-6.80474 z"
           clip-path="none"
           style="opacity:0.7;fill:#ffffff;fill-opacity:1;fill-rule:nonzero;stroke:none"
           inkscape:connector-curvature="0" />
        <path
           id="path7546"
           d="m 325.93659,157.24593 c -110.45892,0 -199.99989,89.54096 -199.99989,200.00015 0,17.9673 2.36156,35.4164 6.80475,51.9816 16.54324,4.4306 33.97051,6.8048 51.91161,6.8048 110.45892,0 199.99989,-89.61127 199.99989,-200.0702 0,-17.96737 -2.36156,-35.34636 -6.80475,-51.91161 -16.56502,-4.44319 -33.94424,-6.80474 -51.91161,-6.80474 z"
           clip-path="none"
           style="opacity:0.7;fill:#ffffff;fill-opacity:1;fill-rule:nonzero;stroke:none"
           inkscape:connector-curvature="0" />
        <path
           id="path7548"
           d="m 184.65306,298.52969 c -17.9438,0 -35.36612,2.373 -51.91161,6.80474 -4.44319,16.56525 -6.80475,33.94425 -6.80475,51.91165 0,110.4589 89.54097,199.9999 199.99989,199.9999 17.97119,0 35.34345,-2.3598 51.91161,-6.8046 4.43174,-16.5457 6.80475,-33.968 6.80475,-51.9116 0,-110.4591 -89.54097,-200.00009 -199.99989,-200.00009 z"
           clip-path="none"
           style="opacity:0.7;fill:#ffffff;fill-opacity:1;fill-rule:nonzero;stroke:none"
           inkscape:connector-curvature="0" />
        <path
           id="path7550"
           d="m 43.369181,157.24593 c -17.96732,0 -35.3463797,2.36155 -51.9116097,6.80474 -4.4430503,16.56525 -6.8046303,33.94424 -6.8046303,51.91161 0,110.45893 89.54096,200.0702 200.000119,200.0702 17.97095,0 35.34322,-2.4301 51.91161,-6.8748 4.43151,-16.5457 6.80452,-33.9681 6.80452,-51.9116 0,-110.45919 -89.54097,-200.00015 -200.000009,-200.00015 z"
           clip-path="none"
           style="opacity:0.7;fill:#ffffff;fill-opacity:1;fill-rule:nonzero;stroke:none"
           inkscape:connector-curvature="0" />
      </g>
    </g>
    <g
       id="g7486">
      <g
         id="g7488"
         transform="matrix(0.19339373,0,0,0.19339373,498.55188,344.34238)"
         style="opacity:1;fill:#ffffff;fill-opacity:1">
        <path
           id="path7490"
           d="m 184.65306,298.52969 c -110.459159,0 -200.000119,89.54099 -200.000119,200.00009 0,17.9436 2.37292,35.3659 6.8046303,51.9116 16.56833,4.4448 33.9405397,6.8046 51.9116097,6.8046 110.459039,0 200.000009,-89.541 200.000009,-199.9999 0,-17.9674 -2.36156,-35.3464 -6.80452,-51.91165 -16.56525,-4.44318 -33.94447,-6.80474 -51.91161,-6.80474 z"
           clip-path="none"
           style="opacity:0.7;fill:#ffffff;fill-opacity:1;fill-rule:nonzero;stroke:none"
           inkscape:connector-curvature="0" />
        <path
           id="path7492"
           d="m 325.93659,157.24593 c -110.45892,0 -199.99989,89.54096 -199.99989,200.00015 0,17.9673 2.36156,35.4164 6.80475,51.9816 16.54324,4.4306 33.97051,6.8048 51.91161,6.8048 110.45892,0 199.99989,-89.61127 199.99989,-200.0702 0,-17.96737 -2.36156,-35.34636 -6.80475,-51.91161 -16.56502,-4.44319 -33.94424,-6.80474 -51.91161,-6.80474 z"
           clip-path="none"
           style="opacity:0.7;fill:#ffffff;fill-opacity:1;fill-rule:nonzero;stroke:none"
           inkscape:connector-curvature="0" />
        <path
           id="path7494"
           d="m 184.65306,298.52969 c -17.9438,0 -35.36612,2.373 -51.91161,6.80474 -4.44319,16.56525 -6.80475,33.94425 -6.80475,51.91165 0,110.4589 89.54097,199.9999 199.99989,199.9999 17.97119,0 35.34345,-2.3598 51.91161,-6.8046 4.43174,-16.5457 6.80475,-33.968 6.80475,-51.9116 0,-110.4591 -89.54097,-200.00009 -199.99989,-200.00009 z"
           clip-path="none"
           style="opacity:0.7;fill:#ffffff;fill-opacity:1;fill-rule:nonzero;stroke:none"
           inkscape:connector-curvature="0" />
        <path
           id="path7496"
           d="m 43.369181,157.24593 c -17.96732,0 -35.3463797,2.36155 -51.9116097,6.80474 -4.4430503,16.56525 -6.8046303,33.94424 -6.8046303,51.91161 0,110.45893 89.54096,200.0702 200.000119,200.0702 17.97095,0 35.34322,-2.4301 51.91161,-6.8748 4.43151,-16.5457 6.80452,-33.9681 6.80452,-51.9116 0,-110.45919 -89.54097,-200.00015 -200.000009,-200.00015 z"
           clip-path="none"
           style="opacity:0.7;fill:#ffffff;fill-opacity:1;fill-rule:nonzero;stroke:none"
           inkscape:connector-curvature="0" />
      </g>
      <g
         style="opacity:1"
         transform="matrix(0.19339373,0,0,0.19339373,498.55188,344.34238)"
         id="g7498">
        <path
           inkscape:connector-curvature="0"
           style="opacity:0.7;fill:#46516b;fill-opacity:1;fill-rule:nonzero;stroke:none"
           clip-path="none"
           d="m 184.65306,298.52969 c -110.459159,0 -200.000119,89.54099 -200.000119,200.00009 0,17.9436 2.37292,35.3659 6.8046303,51.9116 16.56833,4.4448 33.9405397,6.8046 51.9116097,6.8046 110.459039,0 200.000009,-89.541 200.000009,-199.9999 0,-17.9674 -2.36156,-35.3464 -6.80452,-51.91165 -16.56525,-4.44318 -33.94447,-6.80474 -51.91161,-6.80474 z"
           id="path7500" />
        <path
           inkscape:connector-curvature="0"
           style="opacity:0.7;fill:#31b101;fill-opacity:1;fill-rule:nonzero;stroke:none"
           clip-path="none"
           d="m 325.93659,157.24593 c -110.45892,0 -199.99989,89.54096 -199.99989,200.00015 0,17.9673 2.36156,35.4164 6.80475,51.9816 16.54324,4.4306 33.97051,6.8048 51.91161,6.8048 110.45892,0 199.99989,-89.61127 199.99989,-200.0702 0,-17.96737 -2.36156,-35.34636 -6.80475,-51.91161 -16.56502,-4.44319 -33.94424,-6.80474 -51.91161,-6.80474 z"
           id="path7502" />
        <path
           inkscape:connector-curvature="0"
           style="opacity:0.7;fill:#4296b8;fill-opacity:1;fill-rule:nonzero;stroke:none"
           clip-path="none"
           d="m 184.65306,298.52969 c -17.9438,0 -35.36612,2.373 -51.91161,6.80474 -4.44319,16.56525 -6.80475,33.94425 -6.80475,51.91165 0,110.4589 89.54097,199.9999 199.99989,199.9999 17.97119,0 35.34345,-2.3598 51.91161,-6.8046 4.43174,-16.5457 6.80475,-33.968 6.80475,-51.9116 0,-110.4591 -89.54097,-200.00009 -199.99989,-200.00009 z"
           id="path7504" />
        <path
           inkscape:connector-curvature="0"
           style="opacity:0.7;fill:#1c673c;fill-opacity:1;fill-rule:nonzero;stroke:none"
           clip-path="none"
           d="m 43.369181,157.24593 c -17.96732,0 -35.3463797,2.36155 -51.9116097,6.80474 -4.4430503,16.56525 -6.8046303,33.94424 -6.8046303,51.91161 0,110.45893 89.54096,200.0702 200.000119,200.0702 17.97095,0 35.34322,-2.4301 51.91161,-6.8748 4.43151,-16.5457 6.80452,-33.9681 6.80452,-51.9116 0,-110.45919 -89.54097,-200.00015 -200.000009,-200.00015 z"
           id="path7506" />
      </g>
    </g>
  </g>
</svg>
