<?xml version="1.0" encoding="UTF-8" standalone="no"?>
<!-- Created with Inkscape (http://www.inkscape.org/) -->

<svg
   xmlns:dc="http://purl.org/dc/elements/1.1/"
   xmlns:cc="http://creativecommons.org/ns#"
   xmlns:rdf="http://www.w3.org/1999/02/22-rdf-syntax-ns#"
   xmlns:svg="http://www.w3.org/2000/svg"
   xmlns="http://www.w3.org/2000/svg"
   xmlns:sodipodi="http://sodipodi.sourceforge.net/DTD/sodipodi-0.dtd"
   xmlns:inkscape="http://www.inkscape.org/namespaces/inkscape"
   width="100"
   height="100"
   id="svg73797"
   version="1.1"
   inkscape:version="0.48.4 r9939"
   sodipodi:docname="mar_icon.svg">
  <defs
     id="defs73799" />
  <sodipodi:namedview
     id="base"
     pagecolor="#ffffff"
     bordercolor="#666666"
     borderopacity="1.0"
     inkscape:pageopacity="0.0"
     inkscape:pageshadow="2"
     inkscape:zoom="0.7"
     inkscape:cx="-29.285716"
     inkscape:cy="92.142857"
     inkscape:document-units="px"
     inkscape:current-layer="layer1"
     showgrid="false"
     inkscape:window-width="1680"
     inkscape:window-height="988"
     inkscape:window-x="-8"
     inkscape:window-y="-8"
     inkscape:window-maximized="1" />
  <metadata
     id="metadata73802">
    <rdf:RDF>
      <cc:Work
         rdf:about="">
        <dc:format>image/svg+xml</dc:format>
        <dc:type
           rdf:resource="http://purl.org/dc/dcmitype/StillImage" />
      </cc:Work>
    </rdf:RDF>
  </metadata>
  <g
     inkscape:label="Layer 1"
     inkscape:groupmode="layer"
     id="layer1"
     transform="translate(0,-952.36217)">
    <rect
       style="fill:#60cd9b;fill-opacity:1;fill-rule:evenodd;stroke:none"
       id="rect70056-2"
       width="100"
       height="100"
       x="0"
       y="952.36218" />
    <path
       id="path73751"
       d="m 75.001894,997.05991 c -4.60214,0 -8.334467,2.03514 -8.334467,4.54449 0,-2.50935 -3.7293,-4.54449 -8.334473,-4.54449 -2.823114,0 -5.309814,0.77134 -6.81608,1.94267 v 13.20782 h 1.51536 v 6.0615 c 0,1.673 1.356246,3.0307 3.030713,3.0307 1.67296,0 3.027687,-1.3577 3.027687,-3.0307 0,-1.673 1.35776,-3.0307 3.030713,-3.0307 1.674473,0 3.03072,1.3577 3.03072,3.0307 0,5.0204 -4.070253,9.0906 -9.08912,9.0906 -5.021893,0 -9.092147,-4.0702 -9.092147,-9.0906 v -6.0615 h 1.51536 v -13.20782 c -1.506266,-1.17133 -3.992973,-1.94267 -6.819113,-1.94267 -4.602147,0 -8.33144,2.03514 -8.33144,4.54449 l 0,0 c 0,-2.50935 -3.732327,-4.54449 -8.334474,-4.54449 -4.60214,0 -8.334467,2.03514 -8.334467,4.54449 0,-10.87869 14.926281,-24.24262 33.336368,-24.24262 18.410086,0 33.3303,13.36393 33.3303,24.24262 0,-2.50935 -3.729294,-4.54449 -8.33144,-4.54449 z"
       clip-rule="evenodd"
       inkscape:connector-curvature="0"
       style="fill:#ffffff;fill-opacity:1;fill-rule:evenodd" />
    <text
       xml:space="preserve"
       style="font-size:10px;font-style:normal;font-variant:normal;font-weight:normal;font-stretch:normal;line-height:125%;letter-spacing:0px;word-spacing:0px;fill:#ffffff;fill-opacity:1;stroke:none;font-family:Lato;-inkscape-font-specification:Lato"
       x="23.119049"
       y="1046.6471"
       id="text76054"
       sodipodi:linespacing="125%"><tspan
         sodipodi:role="line"
         id="tspan76056"
         x="23.119049"
         y="1046.6471">March/April</tspan></text>
  </g>
</svg>
