<?xml version="1.0" encoding="UTF-8" standalone="no"?>
<!-- Created with Inkscape (http://www.inkscape.org/) -->

<svg
   xmlns:dc="http://purl.org/dc/elements/1.1/"
   xmlns:cc="http://creativecommons.org/ns#"
   xmlns:rdf="http://www.w3.org/1999/02/22-rdf-syntax-ns#"
   xmlns:svg="http://www.w3.org/2000/svg"
   xmlns="http://www.w3.org/2000/svg"
   xmlns:sodipodi="http://sodipodi.sourceforge.net/DTD/sodipodi-0.dtd"
   xmlns:inkscape="http://www.inkscape.org/namespaces/inkscape"
   width="100"
   height="100"
   id="svg73789"
   version="1.1"
   inkscape:version="0.48.4 r9939"
   sodipodi:docname="may_icon.svg">
  <defs
     id="defs73791" />
  <sodipodi:namedview
     id="base"
     pagecolor="#ffffff"
     bordercolor="#666666"
     borderopacity="1.0"
     inkscape:pageopacity="0.0"
     inkscape:pageshadow="2"
     inkscape:zoom="0.98994949"
     inkscape:cx="-218.46462"
     inkscape:cy="41.187694"
     inkscape:document-units="px"
     inkscape:current-layer="layer1"
     showgrid="false"
     inkscape:window-width="1680"
     inkscape:window-height="988"
     inkscape:window-x="-8"
     inkscape:window-y="-8"
     inkscape:window-maximized="1" />
  <metadata
     id="metadata73794">
    <rdf:RDF>
      <cc:Work
         rdf:about="">
        <dc:format>image/svg+xml</dc:format>
        <dc:type
           rdf:resource="http://purl.org/dc/dcmitype/StillImage" />
        <dc:title />
      </cc:Work>
    </rdf:RDF>
  </metadata>
  <g
     inkscape:label="Layer 1"
     inkscape:groupmode="layer"
     id="layer1"
     transform="translate(0,-952.36218)">
    <rect
       style="fill:#67b0d1;fill-opacity:1;fill-rule:evenodd;stroke:none"
       id="rect70056-2"
       width="100"
       height="100"
       x="0"
       y="952.36218" />
    <path
       id="path74613"
       d="m 75.254071,995.32599 0,0 c 1.789762,2.548 2.85002,5.64521 2.85002,8.99851 0,6.8257 -4.36916,12.6185 -10.456183,14.7744 v -5.7275 c 3.123262,-1.8107 5.226785,-5.1784 5.226785,-9.0469 0,-5.77591 -4.680309,-10.45871 -10.456183,-10.45871 -2.091757,0 -4.03186,0.6301 -5.666047,1.6877 -1.608042,-6.9498 -7.808798,-12.1453 -15.248927,-12.1453 -8.663805,0 -15.685581,7.0231 -15.685581,15.6869 0,4.63981 2.025085,8.79721 5.226784,11.66941 v 6.4244 c -6.242594,-3.6188 -10.456182,-10.3568 -10.456182,-18.09381 0,-11.5517 9.363239,-20.91495 20.914979,-20.91495 2.617313,0 5.116965,0.49027 7.425749,1.3688 l 0,0 c 2.137517,-6.12103 7.946064,-10.52025 14.796577,-10.52025 0.988358,0 1.947949,0.102 2.88532,0.27714 -0.17126,0.75174 -0.27062,1.53354 -0.27062,2.33754 0,5.77589 4.680308,10.45752 10.456183,10.45752 0.804018,0 1.585814,-0.0993 2.338845,-0.27194 0.173881,0.93734 0.275853,1.89964 0.275853,2.88664 -0.0013,4.0959 -1.584507,7.8153 -4.157373,10.6104 z M 61.385705,974.52872 c -3.791312,0.86807 -6.764219,3.80435 -7.744737,7.54997 l 0,0 c 2.507498,1.7937 4.605795,4.1207 6.118396,6.8256 0.868077,-0.1477 1.746621,-0.268 2.657839,-0.268 3.421335,0 6.579892,1.11 9.15929,2.969 l 0,0 c 1.120399,-1.2799 1.94011,-2.8343 2.333625,-4.5522 -6.34457,-1.1831 -11.341261,-6.17721 -12.524413,-12.52437 z M 38.88753,1004.3245 c 1.444621,0 2.614699,1.1701 2.614699,2.6147 v 5.2268 c 0,1.4447 -1.170078,2.6147 -2.614699,2.6147 -1.443314,0 -2.6147,-1.17 -2.6147,-2.6147 v -5.2268 c 0,-1.4459 1.172693,-2.6147 2.6147,-2.6147 z m 0,15.6856 c 1.444621,0 2.614699,1.1702 2.614699,2.6147 v 5.2268 c 0,1.4446 -1.170078,2.6147 -2.614699,2.6147 -1.443314,0 -2.6147,-1.1701 -2.6147,-2.6147 v -5.2268 c 0,-1.4459 1.172693,-2.6147 2.6147,-2.6147 z m 10.458797,-10.4588 c 1.443314,0 2.612086,1.1714 2.612086,2.6147 v 5.2294 c 0,1.4434 -1.170079,2.6147 -2.612086,2.6147 -1.44462,0 -2.6147,-1.1713 -2.6147,-2.6147 v -5.2294 c 0,-1.4433 1.17008,-2.6147 2.6147,-2.6147 z m 0,15.6882 c 1.443314,0 2.612086,1.1701 2.612086,2.6121 v 5.2294 c 0,1.4447 -1.170079,2.6147 -2.612086,2.6147 -1.44462,0 -2.6147,-1.17 -2.6147,-2.6147 v -5.2294 c 0,-1.4433 1.17008,-2.6121 2.6147,-2.6121 z m 10.456183,-20.915 c 1.444621,0 2.614693,1.1701 2.614693,2.6147 v 5.2268 c 0,1.4447 -1.170072,2.6147 -2.614693,2.6147 -1.443313,0 -2.614698,-1.17 -2.614698,-2.6147 v -5.2268 c 0,-1.4459 1.172692,-2.6147 2.614698,-2.6147 z m 0,15.6856 c 1.444621,0 2.614693,1.1702 2.614693,2.6147 v 5.2268 c 0,1.4446 -1.170072,2.6147 -2.614693,2.6147 -1.443313,0 -2.614698,-1.1701 -2.614698,-2.6147 v -5.2268 c 0,-1.4459 1.172692,-2.6147 2.614698,-2.6147 z"
       clip-rule="evenodd"
       inkscape:connector-curvature="0"
       style="fill:#ffffff;fill-opacity:1;fill-rule:evenodd" />
    <text
       xml:space="preserve"
       style="font-size:10px;font-style:normal;font-variant:normal;font-weight:normal;font-stretch:normal;line-height:125%;letter-spacing:0px;word-spacing:0px;fill:#ffffff;fill-opacity:1;stroke:none;font-family:Lato;-inkscape-font-specification:Lato"
       x="27.801819"
       y="1046.6471"
       id="text76054"
       sodipodi:linespacing="125%"><tspan
         sodipodi:role="line"
         id="tspan76056"
         x="27.801819"
         y="1046.6471">May/June</tspan></text>
  </g>
</svg>
