<?xml version="1.0" encoding="UTF-8" standalone="no"?>
<!-- License Agreement at http://iconmonstr.com/license/ -->

<svg
   xmlns:dc="http://purl.org/dc/elements/1.1/"
   xmlns:cc="http://creativecommons.org/ns#"
   xmlns:rdf="http://www.w3.org/1999/02/22-rdf-syntax-ns#"
   xmlns:svg="http://www.w3.org/2000/svg"
   xmlns="http://www.w3.org/2000/svg"
   xmlns:sodipodi="http://sodipodi.sourceforge.net/DTD/sodipodi-0.dtd"
   xmlns:inkscape="http://www.inkscape.org/namespaces/inkscape"
   version="1.1"
   x="0px"
   y="0px"
   width="412"
   height="412"
   viewBox="0 0 412 412"
   enable-background="new 0 0 512 512"
   xml:space="preserve"
   id="svg2994"
   inkscape:version="0.48.4 r9939"
   sodipodi:docname="iconmonstr-menu-10-icon.svg"><metadata
   id="metadata3001"><rdf:RDF><cc:Work
       rdf:about=""><dc:format>image/svg+xml</dc:format><dc:type
         rdf:resource="http://purl.org/dc/dcmitype/StillImage" /><dc:title></dc:title></cc:Work></rdf:RDF></metadata><defs
   id="defs2999" /><sodipodi:namedview
   pagecolor="#ffffff"
   bordercolor="#666666"
   borderopacity="1"
   objecttolerance="10"
   gridtolerance="10"
   guidetolerance="10"
   inkscape:pageopacity="0"
   inkscape:pageshadow="2"
   inkscape:window-width="686"
   inkscape:window-height="480"
   id="namedview2997"
   showgrid="false"
   fit-margin-top="0"
   fit-margin-left="0"
   fit-margin-right="0"
   fit-margin-bottom="0"
   inkscape:zoom="0.4609375"
   inkscape:cx="206"
   inkscape:cy="206"
   inkscape:window-x="464"
   inkscape:window-y="158"
   inkscape:window-maximized="0"
   inkscape:current-layer="svg2994" />
<path
   id="menu-10-icon"
   d="m 206,40 c 44.34,0 86.026,17.267 117.38,48.62 C 354.732,119.974 372,161.66 372,206 372,250.34 354.732,292.026 323.38,323.38 292.026,354.733 250.34,372 206,372 161.659,372 119.974,354.733 88.62,323.38 57.266,292.027 40,250.34 40,206 40,161.66 57.267,119.974 88.62,88.62 119.973,57.266 161.659,40 206,40 z M 206,0 C 92.229,0 0,92.229 0,206 0,319.771 92.229,412 206,412 319.771,412 412,319.771 412,206 412,92.229 319.771,0 206,0 z m -61.859,206 c 0,17.22 -13.959,31.18 -31.179,31.18 -17.221,0 -31.18,-13.96 -31.18,-31.18 0,-17.221 13.959,-31.181 31.18,-31.181 17.22,0 31.179,13.96 31.179,31.181 z M 206,174.819 c -17.221,0 -31.181,13.96 -31.181,31.181 0,17.22 13.96,31.18 31.181,31.18 17.22,0 31.18,-13.96 31.18,-31.18 0,-17.221 -13.96,-31.181 -31.18,-31.181 z m 93.037,0 c -17.22,0 -31.178,13.96 -31.178,31.181 0,17.22 13.958,31.18 31.178,31.18 17.222,0 31.181,-13.96 31.181,-31.18 0,-17.221 -13.959,-31.181 -31.181,-31.181 z"
   style="fill:#30664d;fill-opacity:1"
   inkscape:connector-curvature="0" />
</svg>